<svg width="18" height="19" viewBox="0 0 18 19" fill="none" xmlns="http://www.w3.org/2000/svg">
<path d="M9 3.5L3.75 5.75L9 8L14.25 5.75L9 3.5Z" stroke="#36363D" stroke-linejoin="round"/>
<path fill-rule="evenodd" clip-rule="evenodd" d="M4.95176 8.44098L3.55304 9.04043C3.3692 9.11922 3.25 9.29999 3.25 9.5C3.25 9.70002 3.3692 9.88079 3.55304 9.95958L8.80304 12.2096C8.92881 12.2635 9.07119 12.2635 9.19696 12.2096L14.447 9.95958C14.6308 9.88079 14.75 9.70002 14.75 9.5C14.75 9.29999 14.6308 9.11922 14.447 9.04043L13.0482 8.44098L11.7789 8.98496L12.9807 9.5L9 11.206L5.0193 9.5L6.22106 8.98496L4.95176 8.44098Z" fill="#36363D"/>
<path fill-rule="evenodd" clip-rule="evenodd" d="M4.95176 12.191L3.55304 12.7904C3.3692 12.8692 3.25 13.05 3.25 13.25C3.25 13.45 3.3692 13.6308 3.55304 13.7096L8.80304 15.9596C8.92881 16.0135 9.07119 16.0135 9.19696 15.9596L14.447 13.7096C14.6308 13.6308 14.75 13.45 14.75 13.25C14.75 13.05 14.6308 12.8692 14.447 12.7904L13.0482 12.191L11.7789 12.735L12.9807 13.25L9 14.956L5.0193 13.25L6.22106 12.735L4.95176 12.191Z" fill="#36363D"/>
</svg>
