<svg width="18" height="19" viewBox="0 0 18 19" fill="none" xmlns="http://www.w3.org/2000/svg">
<path d="M11.25 2.75H6.75C5.09315 2.75 3.75 4.09315 3.75 5.75V11.75" stroke="#36363D"/>
<path d="M13.75 9.125V12.125C13.75 13.0162 13.7493 13.6428 13.695 14.1238C13.6419 14.5948 13.5429 14.8639 13.3884 15.0653C13.2953 15.1867 13.1867 15.2953 13.0653 15.3884C12.8639 15.5429 12.5948 15.6419 12.1238 15.695C11.6428 15.7493 11.0162 15.75 10.125 15.75C9.23378 15.75 8.60721 15.7493 8.12619 15.695C7.65524 15.6419 7.38609 15.5429 7.18467 15.3884C7.06334 15.2953 6.95473 15.1867 6.86163 15.0653C6.70707 14.8639 6.60806 14.5948 6.55497 14.1238C6.50074 13.6428 6.5 13.0162 6.5 12.125V9.125C6.5 8.23378 6.50074 7.60721 6.55497 7.12619C6.60806 6.65524 6.70707 6.38609 6.86163 6.18467C6.95473 6.06334 7.06334 5.95473 7.18467 5.86163C7.38609 5.70707 7.65524 5.60806 8.12619 5.55497C8.60721 5.50074 9.23378 5.5 10.125 5.5C11.0162 5.5 11.6428 5.50074 12.1238 5.55497C12.5948 5.60806 12.8639 5.70707 13.0653 5.86163C13.1867 5.95473 13.2953 6.06334 13.3884 6.18467C13.5429 6.38609 13.6419 6.65524 13.695 7.12619C13.7493 7.60721 13.75 8.23378 13.75 9.125Z" stroke="#36363D"/>
</svg>
