<svg width="19" height="18" viewBox="0 0 19 18" fill="none" xmlns="http://www.w3.org/2000/svg">
<path d="M7.25 15.75C7.25 16.1625 7.5875 16.5 8 16.5H11C11.4125 16.5 11.75 16.1625 11.75 15.75V15H7.25V15.75ZM9.5 1.5C6.605 1.5 4.25 3.855 4.25 6.75C4.25 8.535 5.1425 10.1025 6.5 11.055V12.75C6.5 13.1625 6.8375 13.5 7.25 13.5H11.75C12.1625 13.5 12.5 13.1625 12.5 12.75V11.055C13.8575 10.1025 14.75 8.535 14.75 6.75C14.75 3.855 12.395 1.5 9.5 1.5ZM11.6375 9.825L11 10.275V12H8V10.275L7.3625 9.825C6.35 9.12 5.75 7.9725 5.75 6.75C5.75 4.68 7.43 3 9.5 3C11.57 3 13.25 4.68 13.25 6.75C13.25 7.9725 12.65 9.12 11.6375 9.825Z" fill="#FFC700"/>
</svg>
