<svg aria-hidden="true" style="position: absolute; width: 0; height: 0; overflow: hidden;" version="1.1" xmlns="http://www.w3.org/2000/svg" xmlns:xlink="http://www.w3.org/1999/xlink">
<defs>
<symbol id="logs" viewBox="0 0 30 32" >
<path stroke-linejoin="miter" stroke-linecap="butt" stroke-miterlimit="4" stroke-width="1.6842" d="M9.684 5.895h10.947c1.86 0 3.368 1.508 3.368 3.368v14.737c0 1.86-1.508 3.368-3.368 3.368h-10.947c-1.86 0-3.368-1.508-3.368-3.368v-14.737c0-1.86 1.508-3.368 3.368-3.368z"></path>
<path stroke-linejoin="miter" stroke-linecap="round" stroke-miterlimit="4" stroke-width="1.6842" d="M11.368 12.211h7.579"></path>
<path stroke-linejoin="miter" stroke-linecap="round" stroke-miterlimit="4" stroke-width="1.6842" d="M11.368 17.263h7.579"></path>
<path stroke-linejoin="miter" stroke-linecap="round" stroke-miterlimit="4" stroke-width="1.6842" d="M11.368 22.316h5.053"></path>
</symbol>
<symbol id="accounts" viewBox="0 0 30 32">
<path stroke-linejoin="miter" stroke-linecap="butt" stroke-miterlimit="4" stroke-width="1.6842" d="M22.653 27.693c-0.273-1.515-1.198-2.896-2.602-3.885s-3.192-1.519-5.031-1.491c-1.838 0.028-3.602 0.612-4.962 1.643s-2.224 2.439-2.431 3.962"></path>
<path stroke-linejoin="miter" stroke-linecap="round" stroke-miterlimit="4" stroke-width="1.6842" d="M18.947 13.474c0 2.093-1.697 3.789-3.789 3.789s-3.789-1.697-3.789-3.789c0-2.093 1.697-3.789 3.789-3.789s3.789 1.697 3.789 3.789z"></path>
<path stroke-linejoin="miter" stroke-linecap="butt" stroke-miterlimit="4" stroke-width="1.6842" d="M9.263 4.211h11.789c3.256 0 5.895 2.639 5.895 5.895v11.789c0 3.256-2.639 5.895-5.895 5.895h-11.789c-3.256 0-5.895-2.639-5.895-5.895v-11.789c0-3.256 2.639-5.895 5.895-5.895z"></path>
</symbol>
<symbol id="identities" viewBox="0 0 30 32">
<path stroke-linejoin="miter" stroke-linecap="butt" stroke-miterlimit="4" stroke-width="1.6842" d="M18.947 4.632h-7.579c-2.79 0-5.053 2.262-5.053 5.053v10.105"></path>
<path stroke-linejoin="miter" stroke-linecap="butt" stroke-miterlimit="4" stroke-width="1.6842" d="M23.158 15.368v5.053c0 1.501-0.001 2.556-0.093 3.366-0.089 0.793-0.256 1.246-0.516 1.586-0.157 0.204-0.34 0.387-0.544 0.544-0.339 0.26-0.792 0.427-1.586 0.516-0.81 0.091-1.865 0.093-3.366 0.093s-2.556-0.001-3.366-0.093c-0.793-0.089-1.246-0.256-1.586-0.516-0.204-0.157-0.387-0.34-0.544-0.544-0.26-0.339-0.427-0.792-0.516-1.586-0.091-0.81-0.093-1.865-0.093-3.366v-5.053c0-1.501 0.001-2.556 0.093-3.366 0.089-0.793 0.256-1.246 0.516-1.586 0.157-0.204 0.34-0.387 0.544-0.544 0.339-0.26 0.793-0.427 1.586-0.516 0.81-0.091 1.865-0.093 3.366-0.093s2.556 0.001 3.366 0.093c0.793 0.089 1.246 0.256 1.586 0.516 0.204 0.157 0.387 0.34 0.544 0.544 0.26 0.339 0.427 0.793 0.516 1.586 0.091 0.81 0.093 1.865 0.093 3.366z"></path>
</symbol>
<symbol id="applications" viewBox="0 0 30 32">
<path stroke-linejoin="miter" stroke-linecap="round" stroke-miterlimit="4" stroke-width="1.6842" d="M20.211 12.632h5.053c0.93 0 1.684-0.754 1.684-1.684v-5.053c0-0.93-0.754-1.684-1.684-1.684h-5.053c-0.93 0-1.684 0.754-1.684 1.684v5.053c0 0.93 0.754 1.684 1.684 1.684z"></path>
<path stroke-linejoin="miter" stroke-linecap="round" stroke-miterlimit="4" stroke-width="1.6842" d="M11.789 19.368h5.053c1.588 0 2.382 0 2.875 0.493s0.493 1.287 0.493 2.875v1.684c0 1.588 0 2.382-0.493 2.875s-1.287 0.493-2.875 0.493h-5.053v-8.421z"></path>
<path stroke-linejoin="miter" stroke-linecap="round" stroke-miterlimit="4" stroke-width="1.6842" d="M11.789 12.632c0-1.588 0-2.382-0.493-2.875s-1.287-0.493-2.875-0.493h-1.684c-1.588 0-2.382 0-2.875 0.493s-0.493 1.287-0.493 2.875v6.737h8.421v-6.737z"></path>
<path stroke-linejoin="miter" stroke-linecap="round" stroke-miterlimit="4" stroke-width="1.6842" d="M11.789 27.789h-5.053c-1.588 0-2.382 0-2.875-0.493s-0.493-1.287-0.493-2.875v-5.053h8.421v8.421z"></path>
</symbol>
<symbol id="assets" viewBox="0 0 30 32">
<path  stroke-linejoin="round" stroke-linecap="butt" stroke-miterlimit="4" stroke-width="1.6842" d="M15.158 5.895l-8.842 3.789 8.842 3.789 8.842-3.789-8.842-3.789z"></path>
<path d="M8.34 14.216l-2.356 1.010c-0.31 0.133-0.51 0.437-0.51 0.774s0.201 0.641 0.51 0.774l8.842 3.79c0.212 0.091 0.452 0.091 0.663 0l8.842-3.79c0.31-0.133 0.51-0.437 0.51-0.774s-0.201-0.641-0.51-0.774l-2.356-1.010-2.138 0.916 2.024 0.867-6.704 2.873-6.704-2.873 2.024-0.867-2.138-0.916z"></path>
<path d="M8.34 20.532l-2.356 1.010c-0.31 0.133-0.51 0.437-0.51 0.774s0.201 0.641 0.51 0.774l8.842 3.789c0.212 0.091 0.452 0.091 0.663 0l8.842-3.789c0.31-0.133 0.51-0.437 0.51-0.774s-0.201-0.641-0.51-0.774l-2.356-1.010-2.138 0.916 2.024 0.867-6.704 2.873-6.704-2.873 2.024-0.867-2.138-0.916z"></path>
</symbol>
</defs>
</svg>
