<svg width="18" height="19" viewBox="0 0 18 19" fill="none" xmlns="http://www.w3.org/2000/svg">
<rect width="5" height="5" rx="1" transform="matrix(1 0 0 -1 11 7.5)" stroke="#36363D" stroke-linecap="round"/>
<path d="M7 11.5H10C10.9428 11.5 11.4142 11.5 11.7071 11.7929C12 12.0858 12 12.5572 12 13.5V14.5C12 15.4428 12 15.9142 11.7071 16.2071C11.4142 16.5 10.9428 16.5 10 16.5H7V11.5Z" stroke="#36363D" stroke-linecap="round"/>
<path d="M7 7.5C7 6.55719 7 6.08579 6.70711 5.79289C6.41421 5.5 5.94281 5.5 5 5.5H4C3.05719 5.5 2.58579 5.5 2.29289 5.79289C2 6.08579 2 6.55719 2 7.5V11.5H7V7.5Z" stroke="#36363D" stroke-linecap="round"/>
<path d="M7 16.5H4C3.05719 16.5 2.58579 16.5 2.29289 16.2071C2 15.9142 2 15.4428 2 14.5V11.5H7V16.5Z" stroke="#36363D" stroke-linecap="round"/>
</svg>
